<svg xmlns="http://www.w3.org/2000/svg" fill="none" viewBox="-1.2 -1.2 24 24" id="Descript-Icon--Streamline-Svg-Logos" height="24" width="24" style="background-color: #e6e6f7">
  <desc>
    Descript Icon Streamline Icon: https://streamlinehq.com
  </desc>
  <path fill="#010102" d="M1.811205 19.469070000000002c0 1.15605 0.7502175 1.9058175 1.906695 1.9058175L9.2887875 21.375c3.3233175000000004 0 6.041902500000001 -1.12401 7.89021 -3.0917025000000002H1.811205v1.1857725000000001ZM9.2887875 0.22510575 3.7179 0.225c-1.1564775 0 -1.906695 0.74986875 -1.906695 1.90592325v1.18577925h15.3677925C15.330689999999999 1.34901 12.612105000000001 0.22510575 9.2887875 0.22510575ZM14.15052 13.813605c0 0.935235 0.6095025 1.5420375000000002 1.5491925 1.5420375000000002h3.338145c0.37845 -0.9386325000000001 0.6326775 -1.9705499999999998 0.7508475 -3.0840750000000003H15.6997125c-0.93969 0 -1.5491925 0.6066675 -1.5491925 1.5420375000000002ZM9.523552500000001 7.7940225c0 0.9353475 0.6095025 1.5420375000000002 1.5491925 1.5420375000000002h8.71596c-0.11817 -1.1135475 -0.3723975 -2.1454425 -0.7508475 -3.0840750000000003H11.072745000000001c-0.93969 0 -1.5491925 0.6066900000000001 -1.5491925 1.5420375000000002Zm1.548135 6.019582499999999c0 -0.9353699999999999 -0.6095025 -1.5420375000000002 -1.5491925 -1.5420375000000002H1.811205v3.0840750000000003h7.71129c0.93969 0 1.5491925 -0.6066900000000001 1.5491925 -1.5420375000000002ZM6.4447425 7.7940225c0 -0.9353475 -0.6095025 -1.5420375000000002 -1.549215 -1.5420375000000002H1.811205v3.0840750000000003h3.0843225c0.9397125 0 1.549215 -0.6066900000000001 1.549215 -1.5420375000000002Z" stroke-width="0.25"></path>
</svg>