<svg width="75" height="90" viewBox="0 0 75 90" fill="none" xmlns="http://www.w3.org/2000/svg">
<mask id="path-1-inside-1_10_4973" fill="white">
<path d="M74.9678 90C74.9678 70.2804 68.8657 51.0439 57.4986 34.9301C46.1316 18.8164 30.0567 6.61486 11.4797 -0.000110291L-5.37069e-05 32.2389C11.9225 36.4843 22.2392 44.3151 29.5344 54.6567C36.8297 64.9984 40.746 77.3442 40.746 90H74.9678Z"/>
</mask>
<path d="M74.9678 90C74.9678 70.2804 68.8657 51.0439 57.4986 34.9301C46.1316 18.8164 30.0567 6.61486 11.4797 -0.000110291L-5.37069e-05 32.2389C11.9225 36.4843 22.2392 44.3151 29.5344 54.6567C36.8297 64.9984 40.746 77.3442 40.746 90H74.9678Z" stroke="#4787FA" stroke-width="68" mask="url(#path-1-inside-1_10_4973)"/>
</svg>
