<svg width="72" height="88" viewBox="0 0 72 88" fill="none" xmlns="http://www.w3.org/2000/svg">
<mask id="path-1-inside-1_10_4974" fill="white">
<path d="M71.7979 88C71.7979 69.1798 66.2277 50.7806 55.789 35.1207C45.3504 19.4607 30.5104 7.24058 13.1387 -8.13508e-06L-2.29696e-05 31.5225C11.1489 36.1694 20.6731 44.0122 27.3725 54.0626C34.0719 64.113 37.6468 75.9214 37.6468 88H71.7979Z"/>
</mask>
<path d="M71.7979 88C71.7979 69.1798 66.2277 50.7806 55.789 35.1207C45.3504 19.4607 30.5104 7.24058 13.1387 -8.13508e-06L-2.29696e-05 31.5225C11.1489 36.1694 20.6731 44.0122 27.3725 54.0626C34.0719 64.113 37.6468 75.9214 37.6468 88H71.7979Z" stroke="#FEE900" stroke-width="68" mask="url(#path-1-inside-1_10_4974)"/>
</svg>
