<svg width="190" height="95" viewBox="0 0 190 95" fill="none" xmlns="http://www.w3.org/2000/svg">
<mask id="path-1-inside-1_10_4972" fill="white">
<path d="M190 95C190 69.8044 179.991 45.6408 162.175 27.8249C144.359 10.0089 120.196 1.90221e-06 95 0C69.8044 -1.90221e-06 45.6408 10.0089 27.8249 27.8248C10.0089 45.6408 3.80443e-06 69.8044 0 95L34.03 95C34.03 78.8297 40.4536 63.3218 51.8877 51.8877C63.3218 40.4536 78.8298 34.03 95 34.03C111.17 34.03 126.678 40.4536 138.112 51.8877C149.546 63.3218 155.97 78.8298 155.97 95H190Z"/>
</mask>
<path d="M190 95C190 69.8044 179.991 45.6408 162.175 27.8249C144.359 10.0089 120.196 1.90221e-06 95 0C69.8044 -1.90221e-06 45.6408 10.0089 27.8249 27.8248C10.0089 45.6408 3.80443e-06 69.8044 0 95L34.03 95C34.03 78.8297 40.4536 63.3218 51.8877 51.8877C63.3218 40.4536 78.8298 34.03 95 34.03C111.17 34.03 126.678 40.4536 138.112 51.8877C149.546 63.3218 155.97 78.8298 155.97 95H190Z" stroke="#4787FA" stroke-width="68" mask="url(#path-1-inside-1_10_4972)"/>
</svg>
