<svg width="190" height="95" viewBox="0 0 190 95" fill="none" xmlns="http://www.w3.org/2000/svg">
<mask id="path-1-inside-1_10_4971" fill="white">
<path d="M190 95C190 82.5244 187.543 70.171 182.769 58.6451C177.994 47.1191 170.997 36.6464 162.175 27.8249C153.354 19.0033 142.881 12.0056 131.355 7.23144C119.829 2.45725 107.476 -5.45325e-07 95 0C82.5244 5.45325e-07 70.171 2.45725 58.6451 7.23145C47.1191 12.0056 36.6464 19.0033 27.8249 27.8249C19.0033 36.6464 12.0056 47.1191 7.23144 58.6451C2.45725 70.171 -1.09065e-06 82.5244 0 95H34.0131C34.0131 86.9911 35.5906 79.0606 38.6554 71.6613C41.7203 64.262 46.2126 57.5389 51.8757 51.8757C57.5389 46.2126 64.262 41.7203 71.6613 38.6554C79.0606 35.5906 86.9911 34.0131 95 34.0131C103.009 34.0131 110.939 35.5906 118.339 38.6554C125.738 41.7203 132.461 46.2126 138.124 51.8757C143.787 57.5389 148.28 64.262 151.345 71.6613C154.409 79.0606 155.987 86.9911 155.987 95H190Z"/>
</mask>
<path d="M190 95C190 82.5244 187.543 70.171 182.769 58.6451C177.994 47.1191 170.997 36.6464 162.175 27.8249C153.354 19.0033 142.881 12.0056 131.355 7.23144C119.829 2.45725 107.476 -5.45325e-07 95 0C82.5244 5.45325e-07 70.171 2.45725 58.6451 7.23145C47.1191 12.0056 36.6464 19.0033 27.8249 27.8249C19.0033 36.6464 12.0056 47.1191 7.23144 58.6451C2.45725 70.171 -1.09065e-06 82.5244 0 95H34.0131C34.0131 86.9911 35.5906 79.0606 38.6554 71.6613C41.7203 64.262 46.2126 57.5389 51.8757 51.8757C57.5389 46.2126 64.262 41.7203 71.6613 38.6554C79.0606 35.5906 86.9911 34.0131 95 34.0131C103.009 34.0131 110.939 35.5906 118.339 38.6554C125.738 41.7203 132.461 46.2126 138.124 51.8757C143.787 57.5389 148.28 64.262 151.345 71.6613C154.409 79.0606 155.987 86.9911 155.987 95H190Z" stroke="#4787FA" stroke-width="68" mask="url(#path-1-inside-1_10_4971)"/>
</svg>
