<svg xmlns="http://www.w3.org/2000/svg"  viewBox="0 0 64 64" width="64px" height="64px"><path d="M 18.162109 2.6679688 A 1.0001 1.0001 0 0 0 17.228516 4.1132812 L 18.09375 5.9160156 A 1.0006909 1.0006909 0 1 0 19.898438 5.0507812 L 19.033203 3.2480469 A 1.0001 1.0001 0 0 0 18.162109 2.6679688 z M 13.378906 5.4433594 A 1.0001 1.0001 0 0 0 12.605469 7.0332031 L 13.763672 8.6640625 A 1.0001 1.0001 0 1 0 15.392578 7.5058594 L 14.234375 5.875 A 1.0001 1.0001 0 0 0 13.378906 5.4433594 z M 32.001953 6.5273438 C 17.657598 6.5273437 6.0010854 18.064538 6 32.285156 L 6 32.287109 L 6 57.044922 A 1.0001 1.0001 0 0 0 7 58.044922 L 32.007812 58.044922 C 33.795054 58.044922 35.54879 57.865992 37.242188 57.521484 C 49.088293 55.119357 58 44.729335 58 32.287109 C 58 18.065677 46.346976 6.5273436 32.001953 6.5273438 z M 32.001953 8.5273438 C 45.27693 8.5273436 56 19.156542 56 32.287109 C 56 43.774884 47.781644 53.344581 36.84375 55.5625 C 35.283147 55.879992 33.662572 56.044922 32.007812 56.044922 L 8 56.044922 L 8 32.300781 A 1.0001 1.0001 0 0 0 8 32.287109 L 8 32.285156 C 8.0010819 19.155646 18.727646 8.5273437 32.001953 8.5273438 z M 9.2304688 8.9746094 A 1.0001 1.0001 0 0 0 8.5371094 10.693359 L 9.9550781 12.103516 A 1.0005861 1.0005861 0 1 0 11.367188 10.685547 L 9.9492188 9.2753906 A 1.0001 1.0001 0 0 0 9.2304688 8.9746094 z M 32.072266 12.982422 C 31.613266 12.982422 31.1475 12.997297 30.6875 13.029297 C 21.0555 13.687297 13.140875 21.698578 12.671875 31.267578 C 12.414875 36.548578 14.286313 41.571109 17.945312 45.412109 C 21.600313 49.249109 26.740781 51.451172 32.050781 51.451172 C 42.932781 51.451172 51.457031 43.000891 51.457031 32.212891 C 51.457031 31.410891 51.401062 30.598375 51.289062 29.734375 C 51.186062 28.726375 50.335781 27.941406 49.300781 27.941406 L 38.033203 27.941406 C 37.321203 27.941406 36.664641 28.318594 36.306641 28.933594 L 33.652344 33.484375 C 33.291344 34.103375 33.289484 34.867281 33.646484 35.488281 C 34.003484 36.109281 34.664859 36.492188 35.380859 36.492188 L 41.978516 36.492188 C 40.292516 40.320188 36.444406 42.908203 32.066406 42.908203 C 30.151406 42.908203 28.231422 42.421937 26.357422 41.460938 C 24.797422 40.660938 23.547234 39.435969 22.740234 37.917969 C 20.749234 34.164969 20.755812 30.101437 22.757812 26.773438 C 24.704812 23.537437 28.267641 21.527344 32.056641 21.527344 C 35.135641 21.527344 38.082672 22.838047 40.138672 25.123047 C 40.519672 25.547047 41.061 25.785156 41.625 25.785156 C 41.693 25.785156 41.761078 25.782391 41.830078 25.775391 C 42.466078 25.710391 43.032516 25.346922 43.353516 24.794922 L 45.734375 20.710938 C 46.203375 19.904937 46.053047 18.881141 45.373047 18.244141 C 41.754047 14.850141 37.031266 12.983422 32.072266 12.982422 z M 5.7480469 13.169922 A 1.0001 1.0001 0 0 0 5.1582031 14.996094 L 6.7949219 16.144531 A 1.0002809 1.0002809 0 0 0 7.9453125 14.507812 L 6.3085938 13.359375 A 1.0001 1.0001 0 0 0 5.7480469 13.169922 z M 32.072266 14.982422 C 36.689266 14.982422 40.890906 16.781219 44.003906 19.699219 L 41.623047 23.783203 C 39.274047 21.172203 35.852688 19.525391 32.054688 19.525391 C 22.842688 19.525391 15.862656 29.218516 20.972656 38.853516 C 21.977656 40.745516 23.531406 42.258281 25.441406 43.238281 C 27.688406 44.391281 29.937453 44.908203 32.064453 44.908203 C 38.346453 44.908203 43.581922 40.405188 44.669922 34.492188 L 35.378906 34.492188 L 38.03125 29.941406 L 49.296875 29.941406 C 49.395875 30.682406 49.453125 31.441844 49.453125 32.214844 C 49.453125 41.718844 41.929828 49.453125 32.048828 49.453125 C 22.167828 49.453125 14.184016 41.258187 14.666016 31.367188 C 15.089016 22.753187 22.134219 15.620344 30.824219 15.027344 C 31.245219 14.997344 31.660266 14.982422 32.072266 14.982422 z M 2.9296875 17.90625 A 1.0001 1.0001 0 0 0 2.5644531 19.816406 L 4.3769531 20.666016 A 1.0001 1.0001 0 1 0 5.2265625 18.855469 L 3.4140625 18.005859 A 1.0001 1.0001 0 0 0 2.9296875 17.90625 z M 59.734375 42.554688 A 1.0001 1.0001 0 0 0 59.355469 44.484375 L 61.203125 45.251953 A 1.0001 1.0001 0 1 0 61.970703 43.40625 L 60.123047 42.636719 A 1.0001 1.0001 0 0 0 59.734375 42.554688 z M 57.449219 46.929688 A 1.0001 1.0001 0 0 0 56.957031 48.783203 L 58.652344 49.84375 A 1.0001 1.0001 0 1 0 59.712891 48.148438 L 58.019531 47.087891 A 1.0001 1.0001 0 0 0 57.449219 46.929688 z M 54.566406 50.869141 A 1.0001 1.0001 0 0 0 53.878906 52.628906 L 55.378906 53.951172 A 1.0011767 1.0011767 0 1 0 56.703125 52.449219 L 55.203125 51.126953 A 1.0001 1.0001 0 0 0 54.566406 50.869141 z M 50.990234 54.285156 A 1.0001 1.0001 0 0 0 50.224609 55.927734 L 51.490234 57.476562 A 1.0001 1.0001 0 1 0 53.039062 56.212891 L 51.773438 54.664062 A 1.0001 1.0001 0 0 0 50.990234 54.285156 z M 46.900391 57.068359 A 1.0001 1.0001 0 0 0 46.074219 58.578125 L 47.068359 60.3125 A 1.0001 1.0001 0 1 0 48.802734 59.318359 L 47.810547 57.583984 A 1.0001 1.0001 0 0 0 46.900391 57.068359 z"/></svg>