<svg width="22" height="22" viewBox="0 0 22 22" fill="none" xmlns="http://www.w3.org/2000/svg">
<path fill-rule="evenodd" clip-rule="evenodd" d="M1.6923 11C1.6923 5.85948 5.85948 1.6923 11 1.6923C16.1404 1.6923 20.3076 5.85948 20.3076 11C20.3076 16.1404 16.1404 20.3076 11 20.3076C5.85948 20.3076 1.6923 16.1404 1.6923 11ZM11 0C4.92485 0 0 4.92485 0 11C0 17.0751 4.92485 21.9999 11 21.9999C17.0751 21.9999 21.9999 17.0751 21.9999 11C21.9999 4.92485 17.0751 0 11 0ZM10.929 14.7512L16.8076 8.65887L15.3462 7.24877L10.1011 12.6845L6.54619 9.92135L5.29992 11.5247L9.57521 14.8478L10.2955 15.4077L10.929 14.7512Z" fill="#00E060"/>
</svg>
